<?xml version="1.0" encoding="utf-8"?>
<!-- Generator: Adobe Illustrator 25.4.0, SVG Export Plug-In . SVG Version: 6.00 Build 0)  -->
<svg version="1.1" id="Layer_1" xmlns="http://www.w3.org/2000/svg" xmlns:xlink="http://www.w3.org/1999/xlink" x="0px" y="0px"
	 viewBox="0 0 447.4 643.2" style="enable-background:new 0 0 447.4 643.2;" xml:space="preserve">
<g>
	<defs>
		<path id="SVGID_1_" d="M446.4,207.8c-0.5-3.1-0.8-7.9-10.8-8.9c-10-1-140.9-7.9-140.9-7.9s0.1-1.4,0.6-2
			c0.5-0.6,1-168.6,0.4-177.4c0,0,1-6.1-6.8-7.6c-7.8-1.5-66.2-8.3-130.8,0c0,0-5.2,1.3-5.2,5.2c0,4-0.2,178.7,0,179.5
			s2.5,1.5,2.5,1.5S5.9,197.4,3.5,197.8c-2.5,0.4-3.6,1.6-3.5,3.1c0.1,1.4,1.7,75.4,1.7,78.2c0,2.9,3.2,120.1,3.2,123
			c0,2.9,2.5,83.5,2.5,88.6s1.8,66.8,2,98.7c0.2,31.9,0.2,39.7,0.5,41.2c0.3,1.5,2,5.4,5.1,7.6c6.4,3.1,160.9,5,215.9,5
			s187.2-3,191.6-3.2c4.4-0.2,5.8-2.2,5.8-2.2s5.8-3.5,5.7-9.5c0-6,1.6-86.1,2.1-96.1c0.5-10.1,5.7-135.6,5.4-137.5
			s3.5-124.5,3.5-126.4S446.9,210.9,446.4,207.8z"/>
	</defs>
	<clipPath id="SVGID_00000026848310748191500680000015686658205211601849_">
		<use xlink:href="#SVGID_1_"  style="overflow:visible;"/>
	</clipPath>
	<g transform="matrix(1 0 0 1 0 0)" style="clip-path:url(#SVGID_00000026848310748191500680000015686658205211601849_);">
		
			<image style="overflow:visible;" width="1200" height="1543" xlink:href="CDGperfume.jpeg"  transform="matrix(0.4826 0 0 0.4826 -67.2518 -38.3528)">
		</image>
	</g>
</g>
</svg>
