<?xml version="1.0" encoding="utf-8"?>
<!-- Generator: Adobe Illustrator 25.4.0, SVG Export Plug-In . SVG Version: 6.00 Build 0)  -->
<svg version="1.1" id="Layer_1" xmlns="http://www.w3.org/2000/svg" xmlns:xlink="http://www.w3.org/1999/xlink" x="0px" y="0px"
	 viewBox="0 0 315.6 280.5" style="enable-background:new 0 0 315.6 280.5;" xml:space="preserve">
<style type="text/css">
	.st0{fill:#FFFFFF;}
</style>
<path class="st0" d="M287.8,280.5c-6.8,0-13-2.5-17.6-7.1c-5-5-7.6-11.5-7.3-18.5c0.3-7.3,3.7-14,9.6-19.1c1.1-1,1.3-1.4,1.3-1.4
	c0,0,0.1-0.6-0.7-2.5c-2.9-7.7-7.4-14.6-14.6-22.5c-4.5,8.3-7.6,17-11,26.2c-1.7,4.8-3.5,9.8-5.5,14.6c1.2,2.1,2,4.6,2.3,7.4
	c0.4,4.3-0.6,8.4-2.9,11.1c-2.4,2.8-6,3-7.1,3c-0.5,0-1,0-1.5-0.1c-21.9-3.7-44.5-5.4-69-5.4c-22.7,0-47,1.6-74.2,4.8
	c-0.6,0.1-1.2,0.1-1.9,0.1c-3.7,0-8.5-0.9-10-5.1c-1.4-3.7-2.2-8.1-2.5-12.9c-0.2-3.1,1.7-5,3.6-6.2c-5.1-18.6-28-65-40.8-82.6
	c-3.4,1.3-6.8,2-10.2,2c-3.5,0-6.9-0.7-10.2-2.1c-6.5-2.7-11.5-7.3-14.8-13.7c-5.3-10-2.9-23.3,5.6-31c4.5-4.1,10.5-6.3,17-6.3
	c5.8,0,11.4,1.8,16,5.1c13.4,9.6,12.2,23.7,9.3,33.2c16.1,15.9,30,33.6,42,50.6l-15.4-93.2c-1.2-0.5-2.3-1-3.4-1.5
	c-4.4-2-8.6-3.8-12.2-6.8c-9.1-7.3-11.8-19.3-6.9-30.7c3.8-8.8,12.3-14.2,22.2-14.2c0.4,0,0.8,0,1.2,0c11.3,0.5,21.9,8.2,25.4,18.3
	c3.9,11.5,0.7,22.3-8.5,29l3.5,8.6c6.2,15.4,12.6,31.3,18.7,47c5.3,13.6,10.4,27.4,15.4,40.8c0.4,1,0.7,1.9,1.1,2.9L147.2,50
	c-10.8-6.1-22.4-15.7-17.7-32.2c3-10.7,13-17.8,24.7-17.8c0.6,0,1.2,0,1.8,0.1c12.6,0.8,23.3,11,24.9,23.8
	c1.4,11-4.4,20.1-15.9,25.5l20.7,148.2l26.6-91.3c-7.6-5.8-15.8-16.1-10.1-30.9c4-10.3,13.6-16.9,24.5-16.9c1.7,0,3.5,0.2,5.2,0.5
	c12.1,2.4,21.2,13.7,20.8,25.8c-0.4,11.7-8.6,21-21.4,24.5l-3.5,91.6c1.7-2.6,3.4-5.3,5.3-7.9c4.6-6.4,9.8-12.2,15.2-18.4
	c2.4-2.7,4.9-5.5,7.3-8.4l5.2-6.1l4.4,6.7c11.6,17.7,20,37.5,26.1,62c10.4,0,18,5,22,14.3c4.1,9.5,1.7,21.2-6.1,29.2
	C302.3,277.5,295.1,280.5,287.8,280.5z"/>
<path d="M43.7,153.1c22.4,21.5,40.5,46.5,57.7,72.2c0.4-0.2,0.8-0.3,1.1-0.5c-6.7-40.6-13.4-81.3-19.8-120.1
	c-6.8-3.4-12.7-5.3-17.3-8.9c-7.3-5.8-8.7-15.2-5.1-23.6c3-6.9,9.7-10.9,17.7-10.6c8.8,0.4,17.3,6.4,20,14.3
	c3,8.9,0.7,17.3-6.8,22.6c-3,2.1-2.7,3.8-1.6,6.6c7.5,18.5,15,37,22.2,55.7c7.6,19.5,14.8,39.2,22.2,58.9c0.7,1.8,1.4,3.6,2,5.4
	c0.6,0,1.3-0.1,1.9-0.1c5.3-59.6,10.5-119.2,15.8-178.3c-16.1-8.1-21.3-16.2-18.3-27.1c2.4-8.6,10.8-14,20.4-13.4
	c9.8,0.6,18.1,8.5,19.3,18.5c1.2,9.4-4.8,16.9-16.5,21c8.4,59.8,16.7,119.6,25.2,180.5c12-41.2,23.9-81.9,35.7-122.3
	C207.6,96.4,204,87.6,208,77.5c3.6-9.3,13.2-14.6,22.9-12.7c9.3,1.8,16.3,10.5,16,19.7c-0.4,10.3-8.6,18-21.2,19.8
	c-1.5,40.3-3.1,80.6-4.6,119.5c5.1-8.3,10.5-18.3,17.1-27.3c6.5-9,14.2-17,22.3-26.4c13.5,20.5,21.1,41.9,26.4,64.5
	c0.7,0.1,1.5,0.3,2.3,0.3c8.7-0.7,15.4,2.2,19,10.6c3.1,7.1,1.1,16.4-4.9,22.6c-8,8.2-21.2,8.7-28.7,1.1c-8-8-7.5-20.7,2-28.7
	c4.1-3.5,4-6.3,2.4-10.6c-4.4-11.7-12-21-21.4-30.1c-10.6,16.2-14.9,34.6-22.2,51.6c3.5,2.8,4.4,10.4,1.7,13.7c-0.6,0.7-2.1,1-3,0.9
	c-48.3-8.1-96.6-6.4-144.9-0.7c-1.9,0.2-5.2-0.2-5.6-1.1c-1.3-3.5-1.9-7.3-2.1-11.1c0-0.7,2.9-1.6,4.5-2.5
	c-2.2-16.4-32.1-77.4-45.9-93.4c-6.2,3.5-12.8,4.8-19.8,1.8c-5.3-2.2-9.2-5.9-11.9-11c-4-7.6-2.2-17.9,4.3-23.8
	c6.6-6,17.7-6.3,25.5-0.8C47,129.8,49,140,43.7,153.1z M223.9,71c-6.7,3.6-9.6,10.7-6.8,15.1C219.3,81.3,221.7,75.9,223.9,71z
	 M20.6,147.6c-1.1-5.2-2.4-11-3.4-16.1C13.6,136.7,15.2,143.7,20.6,147.6z M146.9,16.2c-4.2,5.3-3.7,11.8,0.8,15.2
	C147.4,26.7,147.2,21.3,146.9,16.2z M71.6,88.3c-0.4-5.3-0.8-11.1-1.2-16.1C66.6,78.2,67.1,83.6,71.6,88.3z M289.2,265.6
	c-3.3-3.4-7.2-7.5-10.7-11.1C278.6,261.1,283.1,265.6,289.2,265.6z"/>
<path class="st0" d="M223.9,71c-2.2,4.9-4.7,10.3-6.8,15.1C214.3,81.8,217.2,74.6,223.9,71z"/>
<path class="st0" d="M20.6,147.6c-5.4-3.9-7-10.9-3.4-16.1C18.3,136.6,19.5,142.4,20.6,147.6z"/>
<path class="st0" d="M146.9,16.2c0.3,5.1,0.5,10.5,0.8,15.2C143.2,28.1,142.7,21.5,146.9,16.2z"/>
<path class="st0" d="M71.6,88.3c-4.5-4.7-5-10.1-1.2-16.1C70.8,77.3,71.2,83.1,71.6,88.3z"/>
<path class="st0" d="M289.2,265.6c-6.1,0-10.6-4.5-10.7-11.1C282,258.1,286,262.2,289.2,265.6z"/>
</svg>
