<?xml version="1.0" encoding="utf-8"?>
<!-- Generator: Adobe Illustrator 25.4.0, SVG Export Plug-In . SVG Version: 6.00 Build 0)  -->
<svg version="1.1" id="Layer_1" xmlns="http://www.w3.org/2000/svg" xmlns:xlink="http://www.w3.org/1999/xlink" x="0px" y="0px"
	 viewBox="0 0 1920 1080" style="enable-background:new 0 0 1920 1080;" xml:space="preserve">
<style type="text/css">
	.st0{fill:#FFFFFF;}
</style>
<path class="st0" d="M1509.2,1077.1c-6.1,0-12.1-1-17.8-2.9c-14.6-4.6-24.2-14.9-27.8-29.7c-4.7-19.4-3.6-37.6,3.4-54.1
	c7.3-17.3,7.5-35.6,6.7-51.1c-1.3-24.9-0.9-50-0.4-71.6c0.8-34.1,1.7-68.8,2.6-102.3c1-37.2,2-75.6,2.9-113.6
	c-5.5,21-12.3,43.4-21.3,65.2c-4,9.7-4.2,19.8-0.6,32c2.2,7.3,3.9,14.7,5.2,22.2l0,0.1c3.7,23.4-5.7,39.1-27.9,46.6
	c-8.4,2.8-17.1,4.3-25.9,4.3c-0.3,0-1.1,0-1.1,0c-12.5-0.2-23.2-5.2-30.3-14c-7.4-9.3-10.1-21.8-7.4-35.3c1.1-5.4,2.3-10.8,3.5-16.1
	c-3.3,2.9-6.6,5.9-9.9,8.8c-5.5,4.9-11.2,10-17.1,14.9c-10.9,9.2-23.3,15.8-36.9,19.8l-0.1,0c-5.5,1.5-10.9,2.3-16,2.3
	c-24.5,0-42.4-17-45.8-43.4c-3.6-28.5,3.9-54.5,10.7-73.9c0-0.1,0-0.1,0.1-0.2c-3.7,4.9-7.5,9-10.8,12.4
	c-16.3,16.6-35.6,28.5-54.1,38.7c-25.1,14-45.7,25-64.8,34.7c-7.8,3.9-17.1,6.6-27.7,8c-2.1,0.3-4.1,0.4-6.1,0.4
	c-9,0-25.2-3.3-32-25.4c-6.1-19.8-4.8-40.5,3.9-63.5c5.7-15,13.9-28.1,21.9-40.7c2.5-4,5.1-8.1,7.5-12.2c2.8-4.7,5.5-9.6,8.1-14.6
	c-3.4-0.9-7.1-1.7-11.4-2.4c-11-1.8-22.7-2.7-35.7-2.7c-12,0-24.9,0.7-41.7,2.3c-1.5,0.1-3,0.3-4.5,0.4c0.2,3.3,0.5,6.5,0.9,9.6
	c3.4,27.5,6.7,54.3,10.5,81.6c2.2,15.6,4.6,29.6,7.5,42.6c0.7,3,3.1,7,5.5,10.9l0.3,0.5c1.5,2.4,3.4,4.9,5.4,7.5
	c1.7,2.2,3.4,4.4,5.1,6.9c15.6,22.7,11.1,42.2,4.5,54.6c-9.9,18.7-27,28.7-49.4,28.7c-16.5,0-31.3-6.8-40.8-18.8
	c-9.7-12.2-13.1-28.7-9.3-45.4c1-4.2,2.1-8.2,3.2-12.1c2-7,3.9-13.7,4.2-19.8c1-19.9,1-41.2-0.2-66.9c-0.7-16.3-1.9-32.6-3.3-49.5
	c-4.8,4.9-10,8.9-15.1,12.8c-2.1,1.6-4.1,3.1-6,4.7c-1.8,1.5-3.7,2.8-5.7,4c-7.7,4.8-12.2,11-9.3,25.3c2.7,13.5,4.6,26.7,6.2,37.8
	l0,0.3l0,0.3c0.5,5.4,0.3,10.8-0.7,16c-1.8,10.7-8.3,24.8-29.2,32.1c-7.9,2.9-16.1,4.3-24.5,4.3c-3,0-6-0.2-8.9-0.6l-0.2,0
	c-16.7-2.3-28.1-13.7-29.7-29.7c-0.6-6.3-0.5-12.3-0.4-18.1c0-0.2,0-0.4,0-0.5c-5.2,4.1-10.8,8.6-16.3,13.2c-2.1,1.8-4.3,5-4.2,14.8
	c0.1,9,0.7,17.9,1.4,27.3c0.4,6.1,0.9,12.3,1.2,18.6c0.1,1.6,0.2,3.2,0.2,4.8c0.5,10.1,1,20.6,0.3,31.3
	c-1.7,25.7-19.1,41.8-45.5,41.9c-0.3,0-0.5,0-0.8,0c-10.3,0-20.5-2.7-29.4-7.9c-21.4-12.4-28.7-34.3-19.5-58.7
	c0.4-1.2,0.9-2.4,1.4-3.6c-6.4,7.2-13.6,15.2-22.6,21.1c-11.4,7.6-24,11.4-37.4,11.4c-10.6,0-21.6-2.4-32.7-7.3
	c-15.7-6.8-24.6-20.4-25.1-38.2c-0.5-17.4,2.9-35.1,10.7-55.9c14.7-38.9,23.7-80.9,31.4-118.7c-10,0.6-20,1.2-30,1.8
	c-36.2,2.1-73.7,4.3-110.4,7c-14.4,1-29.1,2.8-43.3,4.4c-10.7,1.3-21.8,2.5-32.9,3.6l-0.2,0c-3.6,0.3-7.3,0.4-10.9,0.4
	c-5.5,0-11-0.3-16.4-1c-15.4-1.7-25.2-11.4-27.5-27.3c-0.4-2.5-0.5-4.8-0.6-6.9c0-0.6-0.1-1.1-0.1-1.7c-1.1-16.6,5.6-29.3,19.7-37.9
	c43.8-26.5,86.2-46.8,129.4-62.3c33.2-11.9,67.1-23.7,100.6-35.1c8.6-2.9,17.3-4.4,25.6-5.8l1.1-0.2c3.1-0.5,6.1-0.8,9-0.8
	c8.8,0,16.6,2.4,22.9,6.7c3.6-14.7,7.3-29.7,10.6-44.5c5.8-25.4,11.3-51.3,16.6-76.4c1.6-7.6,3.2-15.3,4.9-22.9
	c0.1-0.5,0.2-0.9,0.3-1.4c0,0-0.1,0-0.1,0c-5.4-0.3-10.4-0.6-15.4-0.6c-0.7,0-1.5,0-2.2,0c-35.4,0.7-71.3,1.5-106.8,2.6
	c-1.8,0.1-3.7,0.1-5.5,0.2c-11.6,0.3-22.5,0.6-33.2,2.1c-11.9,1.7-23.6,4.3-36.1,7c-4.3,0.9-8.5,1.9-12.8,2.8c-1.5,0.3-3,0.6-4.5,1
	c-9.5,2.1-19.4,4.3-30.2,4.3c-3.1,0-6.2-0.2-9.2-0.6c-23-2.9-39.1-15.9-46.7-37.7c-5.5-15.9-5.8-30.5-0.9-44.6
	c6.8-19.4,23.9-31.9,43.7-31.9c8.3,0,16.6,2.3,24,6.7c6.6,3.9,12.6,8.6,18,14.1c8.3,8.6,17.5,12.5,28.9,12.5c1.3,0,2.6,0,3.9-0.1
	c3.2-0.2,6.3-0.5,9.5-0.8c7.8-0.6,15.8-1.3,23.9-1.6c51.8-2.1,104.5-4.2,156.4-6.2c1.9-0.1,3.9-0.2,6-0.3c0.9-0.1,1.9-0.1,2.9-0.2
	l0.2-0.9c7.6-38.4,15.5-78.1,18.8-117.5c1.8-21.4,1.6-38.5-0.7-53.9c-4-26.9,4.8-49.8,25.4-66.3c8.4-6.7,17.5-10.2,26.4-10.2
	c13,0,24.6,7.2,32.8,20.3c13.3,21.4,15.9,44.9,7.9,70.2l-0.1,0.2c-3.2,9.5-7.2,18.9-11.9,27.8c-4.6,9.1-7.4,19.5-8.8,32.9
	c-1.3,12.8-3,25.7-4.6,38.1c-1.1,8.6-2.3,17.5-3.3,26.2c-1.1,9.4-2,19-2.9,28.3c-0.2,1.7-0.3,3.5-0.5,5.2c5.5,0.5,10.9,1.1,16.3,1.7
	c17.6,1.8,35.8,3.7,53.5,4.7c38.6,2.3,80.1,3.4,134.5,3.4c22.3,0,45.1-0.2,67-0.3c22-0.2,44.8-0.3,67.3-0.3c9.9,0,19,0,27.9,0.1
	c11.5,0.1,23.3,0.2,35.1,0.4l0.4,0c7.3,0,14-2.3,21-7.3c4.2-3,9.9-6.9,15.8-10.5c10.4-6.4,21.1-9.6,31.9-9.6
	c5.7,0,11.5,0.9,17.3,2.7c22.3,7,39.1,32.5,38.2,58.1c-0.8,22.5-17.2,41.6-41,47.5c-4.1,1-8.2,1.5-12.3,1.5
	c-6.5,0-12.9-1.2-19.7-3.6c-3.3-1.1-6.5-2.4-9.6-4l-0.4-0.2c-10.2-5.5-21.7-6.2-32.6-6.2c-27.2,0-56.4-0.1-85.9-0.9
	c-37.5-1-75.6-2.3-112.4-3.5c-15.7-0.5-31.4-1-47.1-1.6c-56.8-1.8-114.6-3.7-172.1-5.6c-5.6,45.4-7.4,95.3-5.6,156.5
	c0.6,19.2,1.4,38.7,2.2,57.8c7.5-36.1,16.1-72.7,29.8-107.6c3-7.8,4-16.2,3.2-27.2c-0.5-6.1-0.8-14.3,0.9-22.5
	c3.3-16.1,15-27.4,33-31.7c5.2-1.3,9.9-1.9,14.3-1.9c12.2,0,22.4,5,29.5,14.4c4.7,6.1,7.8,13.4,9,21.1l0,0.3
	c2.9,20.4-0.8,38-11,52.4c-1.9,2.6-2.7,6.2-2.9,12.8c-0.2,4.9-0.4,9.8-0.5,14.7c-0.9,24.5-1.8,49.9-2,74.8c0,4.5,0.4,9.1,1,13.8
	c3.6-11.7,7.2-23.4,10.8-35c4.7-15.6,9.4-31.5,13.9-46.9c2.3-7.8,4.6-15.7,7-23.5c0.7-2.6,1.6-5.2,2.8-7.7l0.2-0.4l0.2-0.4
	c6.5-11.7,5.8-25.3,4.3-40.6c-0.7-7.1-0.9-14.3-0.6-21.5c0.9-21.9,14.2-37.7,35.5-42.2c5.6-1.2,11.4-1.8,17.2-1.8
	c1.1,0,2.2,0,3.3,0.1c14,0.6,25.7,6.4,33.1,16.2c7.2,9.6,9.5,22.1,6.3,35.2l-0.1,0.2c-3.1,12.2-7.5,24.2-13.2,35.5
	c-5.5,11.5-8.5,24.3-8.7,37l0,0.1c-0.3,14.1-0.5,28.5-0.7,42.5c-0.2,11.6-0.3,23.5-0.6,35.4c8.7-1.1,17.7-4.9,28.2-11.7
	c7.4-4.8,14.4-10.2,21.8-15.8c4.9-3.7,9.9-7.6,15.1-11.3c4.8-3.5,9.8-6.6,14.6-9.5c2.5-1.6,4.9-3.1,7.3-4.6
	c8.5-27.3,31.9-36.4,51.7-41.2c4.9-1.2,10-1.8,15.1-1.8c3.6,0,7.2,0.3,10.7,0.9l0.2,0c11.1,2,20.1,7.9,25.2,16.6
	c1.2,2,2.1,4.1,2.8,6.3c4.6-7.7,15.3-25.5,15.3-25.5c2.7-4.5,5.4-9.2,8.1-13.8c4.5-7.8,9.1-15.8,14.1-23.6
	c10.3-16,29.2-25.9,49.3-25.9c4.1,0,8.2,0.4,12.2,1.3c15.4,3.4,25.8,13.8,29.4,29.3c3.3,14.7,1.3,30.4-5.8,44.2
	c-7.3,14.3-19,25-33.2,30.2c-14.9,5.4-26,15.4-35,31.5c-2.9,5.1-5.8,10.1-8.8,15.2c3.5,0.6,7.1,1.3,10.6,2
	c19.7,4,39.5,8.2,59.2,12.5c5.8-7.6,10.3-16.5,15.1-25.8c0.7-1.4,1.5-2.9,2.2-4.3c3.8-7.4,7.7-14.9,11.5-22.1
	c3.7-6.9,7.4-14.1,11.1-21.2c0-0.6,0-1.3,0.1-1.9c0.2-3,0.4-6,0.5-9.3c0.3-7.6,0.6-15.4,2.4-23.4c4.1-19.2,18.4-31.2,37.2-31.2
	c4.4,0,9.1,0.7,13.7,2c19.8,5.7,31.8,20.9,32.9,41.7c1,18.1-1.2,32.7-7,46c-5.1,11.6-4.9,24.7-4,37.1c1.2,15.9,2.5,29.1,4.1,41.1
	c0.2-0.6,0.5-1.3,0.7-1.9c6-17.6,11-35.3,14.7-48.7c3.1-11.4,6.2-23,9.2-34.2c3.1-11.9,6.3-24.1,9.7-36.2c1.5-5.5,1.3-9.9-0.8-14.4
	c-5-10.8-10.8-27.3-4.9-46.1c8.7-27.6,36.6-40.2,58.9-40.2c3.6,0,7.1,0.3,10.4,1c16.8,3.5,27.9,17.5,29.5,37.5
	c2,24.6-1.8,45.3-11.7,63.3c-6,11-7,23.2-7.6,39.3c-2.8,71.3-3.6,149.1-2.5,244.7c0.2,22.4,0.5,44.7,0.8,67.1
	c0.4,30.8,0.7,62.6,1,93.9c0.1,9.8,0.1,21.4-0.9,33.4c-1.8,21.1,1.1,39.9,8.9,57.6c4.8,10.9,7.7,24.1,8.5,38.1
	c2.1,38.9-29,46.4-39.2,48.9l-0.1,0C1517.8,1076.6,1513.5,1077.1,1509.2,1077.1z M714.9,632.6c-2.2,9.4-4,17.6-5.6,25.6
	c-5.3,26.6-10.6,53.5-15.8,80.1c-0.8,4-1.5,8-2.2,12.1c1.3-0.3,2.6-0.7,3.8-1.2l0.2-0.1c11-3.6,20.7-10.9,31.1-18.6
	c0.3-0.3,0.7-0.5,1-0.8c0.4-32.4,0.7-65.3,0.9-97.8C723.8,632.1,719.3,632.3,714.9,632.6z M1349.5,627
	c-14.5,26.4-22.6,49.1-25.4,71.3c-0.5,4.4-0.9,8.9-1.1,13.6c7.7-2.4,14.2-6,19.7-11c9.7-8.9,19.3-18.7,28.6-28.2c2-2,3.9-4,5.9-6
	c0.4-6.5,0.8-13.1,1.2-19.5c0.2-4.3,0.5-8.7,0.8-13.1C1368,630.6,1358.5,628.3,1349.5,627z M1164.3,641.2
	c-8.6,11-14.7,23.5-19.7,37.6c17.1-6,31.4-14.2,43.7-24.8C1179.7,648.6,1171.9,644.5,1164.3,641.2z M831.7,667.2
	c0.7-0.4,1.4-0.9,2.1-1.3c-0.1-3.5-0.2-7-0.3-10.6C832.9,659.3,832.3,663.2,831.7,667.2z M1237.8,594.8c7.5,3.9,15.4,9.1,22.4,16.2
	c8.7,8.8,13.2,19.5,13.4,31.4c3.5-9.3,7-18.9,10.4-28.3c0.6-1.7,1.1-3.8,1.6-5.9C1269,601.2,1253.2,596.8,1237.8,594.8z
	 M622.2,560.3c-11,0-22.3,2.1-34.7,6.3c-0.7,0.3-1.5,0.5-2.2,0.8c5.8-0.3,11.6-0.7,17.4-1c19.2-1.1,38.9-2.2,58.6-2.9
	c0.1-0.7,0.6-3.4,0.8-4.1c-2.2,0.6-4.4,0.9-6.7,1.1l-1,0.1c-4.5,0.4-9.1,0.7-14,0.7c-3,0-5.7-0.1-8.3-0.4
	C628.8,560.4,625.5,560.3,622.2,560.3z M1117.2,557.8c6.9,1.2,14.1,2.5,21.2,4c1.5,0.3,2.8,0.5,3.7,0.5c0.4,0,0.6,0,0.7,0
	c0-0.1,0.1-0.1,0.2-0.2c4.3-6.3,9.1-13.3,13.8-20.6c-0.5,0.2-1,0.4-1.6,0.6c-6.8,2.7-13.6,4.9-18.7,6.6
	C1129.8,550.8,1123.5,553.8,1117.2,557.8z"/>
<path d="M803.2,577.1c9.5-46.6,18.3-92.4,35.4-136c4.3-11.1,5.1-22.2,4.2-33.8c-0.5-6.1-0.6-12.4,0.7-18.3
	c2.4-11.6,10.9-17.5,21.8-20.2c10.5-2.6,21-2.7,28.2,6.9c3.2,4.2,5.3,9.2,6.2,14.4c2.1,14.7,0.6,29-8.4,41.5
	c-4.5,6.3-5.4,13.6-5.7,20.9c-1.1,30-2.3,59.9-2.6,89.9c-0.1,11.6,2.2,23.2,3.9,34.7c0.3,1.8,2.7,4.1,4.6,4.7
	c4,1.2,8.1,1.8,12.3,1.9c1.2,0,3-2.2,3.5-3.7c5.7-18.1,11.4-36.2,16.8-54.4c7.1-23.6,14-47.2,21-70.8c0.4-1.8,1.1-3.5,1.8-5.2
	c8.6-15.6,7.7-32.3,6.1-49.2c-0.6-6.5-0.8-13-0.5-19.5c0.6-15.2,8.8-25,23.6-28.1c5.5-1.2,11.2-1.6,16.8-1.4
	c18.9,0.9,29.8,14.5,25.4,32.9c-2.9,11.3-6.9,22.2-12.1,32.6c-6.5,13.6-10,28.4-10.2,43.4c-0.7,29-0.8,58-1.5,87
	c-0.1,4.9,1.6,6.2,6.2,6.5c17,0.9,31.8-5.6,45.4-14.5c13-8.4,24.9-18.5,37.5-27.5c7.3-5.2,15.1-9.7,22.6-14.6c1.6-1,3.6-2.4,4-4
	c5.3-22.1,22.6-29.7,41.8-34.4c6.5-1.6,13.2-1.8,19.7-0.7c13.9,2.5,20.5,13.5,16,26.8c-6.6,19.5-18.1,35.2-38.1,43
	c-5.9,2.3-11.9,4.3-17.9,6.3c-17.9,5.8-32.6,16.4-45.8,29.5c-0.7,0.9-1.4,1.8-2,2.7c6.7,1.4,12.8,2.7,18.8,3.9
	c10.8,2,21.6,3.8,32.4,6c7.9,1.6,15.1,1.2,20.1-6c7.2-10.5,14.4-21.2,21.1-32.1c18.2-29.9,36.3-59.8,54.3-89.8
	c7.4-12.3,14.1-25,21.9-37c9.4-14.5,28.8-21.8,45.6-18.1c9.8,2.2,15.8,8.3,18,18c5.2,23-7.4,48.9-29.5,57
	c-19.8,7.2-33,20.6-42.9,38.3c-6.3,11.1-12.9,22.1-19.7,33.8c10.8,1.8,21.3,3.4,31.6,5.5c21.3,4.3,42.6,8.8,63.9,13.5
	c2.9,0.6,4.5,0.1,6.4-2c9.7-11,15.9-24.1,22.5-37c7.7-15.1,15.8-30,23.5-45.1c0.8-1.6,0.6-3.8,0.8-5.7c0.8-10.2,0.4-20.7,2.6-30.7
	c3.4-16,16.2-22.5,32.1-17.9c13.6,3.9,21.3,13.7,22.1,28.1c0.7,13.5-0.3,26.6-5.8,39.1c-6.2,14.2-6.3,29.2-5.2,44.2
	c1.2,15.6,2.6,31.2,4.8,46.7c1.3,9,5.1,17.2,13.4,23c6.9-7.8,12.3-16.8,15.7-26.7c5.5-16.4,10.4-33,15-49.6
	c6.5-23.4,12.3-47,18.8-70.4c2.4-8.6,2.2-16.5-1.6-24.7c-5.2-11.2-8.2-22.7-4.2-35.3c7.5-23.8,35.7-32.4,51.8-29
	c10.1,2.1,16.5,10.9,17.6,24c1.6,19.1-0.5,37.8-9.9,54.8c-8,14.5-8.8,30.2-9.4,46c-3.2,81.8-3.4,163.6-2.5,245.5
	c0.6,53.7,1.3,107.3,1.8,161c0.1,10.7,0,21.4-0.9,32c-1.9,22.5,0.9,43.9,10.1,64.8c4.4,10.1,6.6,21.8,7.2,32.9
	c1.2,21.9-10.7,29.4-27.8,33.5c-7.5,1.8-15.3,1.4-22.6-1.1c-9.6-3-15.5-9.3-17.9-19c-3.7-15.2-3.4-30.5,2.6-44.7
	c7.9-18.8,8.9-37.8,7.8-57.7c-1.2-23.4-0.9-47-0.4-70.4c1.8-77.7,4.2-155.3,5.9-232.9c0.4-21.8-1.1-43.6-1.8-65.5
	c0-1.4-0.3-2.8-0.5-4.7c-5.1,2.3-8.9,6.7-10.4,12c-2.8,8.5-5,17.2-6.8,26c-7.6,36.9-16.6,73.4-31,108.3c-5.8,14-5.3,27.8-1.1,42
	c2,6.7,3.6,13.5,4.8,20.4c2.5,16-2.4,24.8-17.8,30c-7.1,2.4-14.5,3.6-21.9,3.5c-17.3-0.3-26.8-13.5-23.2-31.4
	c2.2-10.8,4.9-21.4,7.2-32.1c0.5-2.8,0.8-5.6,0.8-8.4c0.1-7.1-0.8-8.2-7.3-5.1c-6.1,3-11.7,6.8-16.8,11.3
	c-10.7,9-20.8,18.7-31.6,27.6c-9.2,7.8-19.9,13.5-31.5,16.9c-22.8,6.4-39.9-5-42.9-28.5c-2.9-23.3,2.3-45.4,10-67.1
	c8.5-23.8,17.5-47.5,26.1-71.2c1.8-5.1,2.7-10.6,4-16c0.7-2.7-0.2-4.3-2.8-5.5c-27.7-12.5-56.4-20.2-87-19.1
	c-7.9,0.3-15.7,1.9-24.2,3c2.2,6.4,5.5,10.5,10.3,12.9c5.7,2.8,11.5,5.2,17.5,7.3c12.6,4.4,24.2,10.2,33.7,19.8
	c8.4,8.5,10.6,18.7,8.1,30c-3.1,14.2-11.3,25.4-21.2,35.6c-14.7,15.1-32.5,26-50.7,36.1c-21.2,11.8-42.6,23.5-64.3,34.4
	c-7,3.5-15.1,5.5-22.9,6.5c-11.8,1.5-18.2-3.1-21.8-14.5c-5.7-18.3-3.1-36.2,3.6-53.8c6.9-18.2,18.4-33.9,28.3-50.5
	c5.8-9.6,10.8-19.8,16.3-30c-10.2-5.5-20-7.9-30-9.5c-27-4.4-54.1-3.1-81.2-0.5c-6.1,0.6-12.2,1.2-19,1.9c0.7,8.5,0.9,16.8,2,25
	c3.4,27.3,6.8,54.5,10.6,81.7c2,14.7,4.5,29.3,7.7,43.7c1.2,5.6,4.6,11,7.7,16c3.2,5.2,7.3,9.9,10.8,15c8.5,12.3,10.8,25.5,3.6,39.1
	c-7.6,14.3-20.2,20.7-36.2,20.7c-25.3,0-41.2-20.7-35.5-45.8c2.6-11.5,7.2-22.9,7.8-34.4c1.2-22.7,0.8-45.6-0.2-68.4
	c-1.1-25.5-3.4-50.9-5.7-76.3c-1.5-15.9-3.8-31.8-10.7-46.5c-1.2-2.7-3.7-4.7-5.7-7.1c-2.4,2.4-5.5,4.4-7,7.3
	c-3.4,6.5-3.3,13.5-0.1,20.2c1.9,3.9,4.1,7.6,5.9,11.6c5,11,3.6,21.6-4.5,30.2c-6.2,6.6-13.9,11.8-21,17.6c-1.3,1-2.7,2-4.1,2.9
	c-15.5,9.7-19.7,23.7-16.2,41c2.5,12.2,4.3,24.6,6,36.9c0.4,4,0.2,8-0.6,11.9c-1.8,11.2-9.3,17.1-19.4,20.6
	c-8.5,3.1-17.6,4.1-26.5,3c-9.4-1.3-15.9-6.9-16.8-16.3c-0.8-7.7-0.2-15.6-0.2-23.4c0-6.7,0-13.5,0-21.5c-4.1,2-7.7,3.1-10.5,5.2
	c-10.3,7.9-20.6,15.8-30.5,24.2c-8.1,6.8-9.7,16.8-9.6,26.5c0.2,15.5,1.9,30.9,2.6,46.4c0.5,11.5,1.3,23,0.6,34.4
	c-1.2,18.2-12.5,27.8-30.6,27.9c-7.9,0.1-15.7-1.9-22.6-5.9c-15-8.7-19.7-22.7-13-40.5c3-8.1,7.2-15.8,10.7-23.6
	c3.4-7.5,5.5-15.4,4.6-23.8c-0.2-1.6-0.5-3.2-0.9-5.9c-3.3,1.6-6,2.6-8.4,4.1c-10.8,6.6-17.7,16.9-26,26.1
	c-7.3,8.1-14.5,16.9-23.4,22.8c-17.5,11.7-36.9,11.1-55.8,2.9c-10.5-4.5-15.7-13-16.1-24.9c-0.5-17.5,3.7-34.1,9.8-50.2
	c15.8-41.8,24.8-85.3,33.7-128.8c0.7-3.4,1.5-6.8,2.4-11c-2.4,0-4.5-0.1-6.5,0c-51.2,3.1-102.5,5.8-153.6,9.5
	c-25.6,1.8-51,5.7-76.5,8c-8.1,0.6-16.3,0.5-24.4-0.5c-9-1-13.1-5.7-14.4-14.6c-0.4-2.5-0.4-5-0.6-7.5c-0.7-10.5,2.9-18.2,12.5-24
	c40.3-24.3,82.3-45.2,126.7-61c33.3-11.9,66.8-23.6,100.4-35c7.8-2.7,16.2-4,24.3-5.4c14.6-2.5,25.1,3.2,29.1,14.8
	c6.2,18-6.3,41.5-26.2,43.1c-6.8,0.5-13.7,1.2-20.4,0.4c-17.6-2-34.4,0.8-51,6.5c-22.3,7.7-45.1,14.1-66.3,24.7
	c-4.4,2.2-8.7,4.8-12.7,7.8c56.9,0.5,113.4-5.4,170.1-6.9c2.9-14.8,5.3-29.3,8.7-43.5c7.6-32.4,15.9-64.6,23.4-97
	c7.6-33.1,14.4-66.3,21.5-99.5c1-4.5,1-9.3,2.1-13.8c0.9-3.8-0.2-5.1-4-5.2c-10.2-0.3-20.3-1.3-30.5-1.1c-35.7,0.7-71.3,1.5-107,2.6
	c-13.5,0.4-27.1,0.5-40.4,2.5c-16.7,2.4-33.2,6.5-49.8,10c-12.9,2.8-25.5,6.2-38.9,4.5c-17.3-2.2-28.7-11.4-34.4-27.7
	c-4-11.5-5-23-0.9-34.7c6.8-19.4,28.1-27.7,45.9-17.2c5.5,3.2,10.5,7.1,14.9,11.6c12.3,12.8,27.1,18.2,44.6,16.9
	c11-0.8,21.9-1.9,32.9-2.3c52.1-2.1,104.2-4.2,156.3-6.2c5.5-0.2,11-0.8,16.5-0.8c3.1,0,4.5-1.4,5.1-4.2
	c8.4-42.3,17.1-84.5,20.7-127.6c1.6-19.2,2-38.3-0.8-57.3c-3.1-21.2,3-38.8,19.9-52.4c13.9-11.1,27.8-8.8,37.2,6.3
	c11.3,18.2,12.7,37.7,6.4,57.7c-3,8.8-6.6,17.4-11,25.7c-6.2,12.1-9,24.9-10.4,38.3c-2.2,21.4-5.4,42.6-7.9,64
	c-1.7,14.7-3,29.5-4.5,44.2c-0.3,3.1,0.5,4.7,3.8,5c27,2.5,54,5.8,81.1,7.5c99.1,6,198.3,2.1,297.4,2.8c11.7,0.1,23.3,0.2,35,0.4
	c11.3,0.1,21.2-3.6,30.3-10c4.9-3.5,9.9-6.8,15-10c11.5-7,23.6-9.5,36.8-5.3c15.9,5,28.4,24.2,27.7,43.3
	c-0.5,15.8-12.7,29.2-29.6,33.4c-8.1,2-15.8,1.1-23.5-1.7c-2.7-0.9-5.3-2-7.8-3.2c-12.4-6.7-25.8-8-39.7-8c-28.5,0-57-0.1-85.5-0.9
	c-53.1-1.4-106.3-3.3-159.4-5c-60-1.9-119.9-3.9-179.9-5.9c-4.9-0.2-6,1.4-6.6,6c-7.4,55.2-8.3,110.6-6.7,166.1
	c0.8,28.2,2.1,56.3,3.3,84.4c0.3,6.3,0.8,6.7,7,6.8C793.1,577.2,798.2,577.1,803.2,577.1z M673.3,767c9.1,0.6,18.2-0.6,26.8-3.6
	c15.5-5.1,27.9-15.4,40.7-24.8c1.1-0.8,1.6-3.2,1.6-4.8c0.4-36.6,0.7-73.3,1-109.9c0-2.2,0-4.5,0-7.5c-13.2,0.5-25.7,1-38.1,1.8
	c-1.2,0.1-3,2.4-3.4,4c-2.6,11-5.1,22-7.3,33.1c-5.4,26.7-10.6,53.5-15.8,80.2C676.9,745.6,675.2,755.9,673.3,767z M1307.2,729.4
	c1.3,0.1,2.7,0.2,4,0.2c15.6-1.8,30-7,41.6-17.6c12.8-11.8,24.9-24.5,37.2-36.9c1.2-1.4,1.9-3.1,1.9-4.9c0.9-14.1,1.6-28.3,2.5-42.4
	c0.2-3-0.7-4.5-3.6-5.5c-14.5-5-29.2-9.1-44.5-10.7c-3.8-0.4-5.8,0.8-7.5,3.9c-14.4,25.4-25.9,51.8-29.6,81
	C1307.9,707.2,1307.8,718.1,1307.2,729.4L1307.2,729.4z M1122.4,700.5c35.4-7.5,65.7-21.7,89.5-48.9c-15.2-10.6-30.5-19.8-47.3-26.5
	c-3.5-1.4-5.7-0.8-8.1,2C1138.3,647.9,1129.6,673,1122.4,700.5z M811.8,697.2c11.3-7.1,21.9-13.9,32.8-20.3c3.2-1.9,4.5-3.9,4.4-7.5
	c-0.5-17-0.8-34-1.2-51c-0.2-0.8-0.5-1.5-0.9-2.3c-5.7,0-11.7,0.4-17.6-0.1c-3.8-0.3-5,0.8-5.5,4.3
	C819.9,645.9,815.9,671.3,811.8,697.2L811.8,697.2z M743.1,576.8c0.2-0.6,0.3-1.2,0.3-1.8c-1.6-24.5-3.3-49.1-5-73.6
	c-0.2-2.4-0.4-5-3.9-5.4s-3.7,2.5-4.2,4.4c-4.2,18.1-8.4,36.2-12.4,54.4c-1.6,7.2-2.8,14.5-4.2,22L743.1,576.8z M1356.4,570.6
	l35,11.9c-0.9-19.7-1.5-37.6-6.1-55.5L1356.4,570.6z M833.3,578.1c4.5,0,8.4,0.2,12.4-0.1c1.1-0.1,2.9-1.9,2.9-2.9
	c-0.1-7.3-0.2-14.6-1-21.8c-0.2-2-2.8-5.5-3.8-5.3c-2.2,0.3-4.5,2.3-6.1,4.2c-1.1,1.2-1.4,3.3-1.7,5.1
	C835,564,834.3,570.7,833.3,578.1L833.3,578.1z"/>
<path class="st0" d="M895.9,267c-11.3,0-22.4-4.6-31.2-13c-15.8-14.9-22.4-35.2-18.8-57c3.4-20.4,17.5-33.8,38.5-36.8l0.2,0
	c2.9-0.4,5.7-0.5,8.2-0.6c1,0,2.1-0.1,3.1-0.2c1.8-0.1,3.5-0.2,5.1-0.2c16.5,0,27.5,7.9,35.5,25.7c8.2,18.2,7.9,37.4-0.8,55.6
	C928,256.7,912.7,267,895.9,267z"/>
<path d="M897,174.2c11.7-0.9,18.9,1.4,25.8,16.7c6.4,14.2,6,29-0.7,43c-9.3,19.7-31.4,24.1-47.1,9.2c-12.4-11.7-17.1-26.8-14.3-43.7
	c2.4-14.3,11.4-22.4,25.8-24.4C890,174.5,893.6,174.5,897,174.2z"/>
<path class="st0" d="M976.6,274.3c-18.9,0-34.9-12.5-40.7-31.9c-6.5-21.6,3.1-43.8,22.7-52.9c5.1-2.3,10.2-3.6,14.6-4.6
	c1.8-0.4,3.5-0.8,5-1.3l2.6-0.7l2.7,0.2c22.7,1.7,39.5,14.7,44,33.7c2.3,9.6,0.9,19.7-3.9,28.4c-8.8,16.6-23.2,26.5-41.6,28.8
	C980.2,274.1,978.4,274.3,976.6,274.3z"/>
<path d="M982.3,197.9c15.8,1.2,27.5,9.5,30.5,22.2c1.4,6.1,0.6,12.4-2.5,17.9c-6.4,12.2-16.6,19.3-30.3,21
	c-13.8,1.7-25.6-6.7-29.9-21c-4.3-14.2,1.6-28.9,14.7-35C970.3,200.5,976.5,199.6,982.3,197.9z"/>
</svg>
