<svg id="Layer_1" data-name="Layer 1" xmlns="http://www.w3.org/2000/svg" viewBox="0 0 1920 1080"><defs><style>.cls-1{fill:#fff;}</style></defs><path d="M1920,1080H0V0H1920ZM803.25,577.09c-5,0-10.17.06-15.3,0-6.25-.08-6.77-.51-7-6.82-1.16-28.14-2.47-56.27-3.29-84.42-1.62-55.53-.74-111,6.69-166.14.62-4.58,1.73-6.16,6.59-6q89.93,3.12,179.88,5.85c53.13,1.71,106.26,3.63,159.4,5.05,28.48.76,57,.86,85.47.89,13.85,0,27.25,1.35,39.7,8a59.65,59.65,0,0,0,7.83,3.23c7.66,2.8,15.36,3.75,23.5,1.74,17-4.2,29.1-17.63,29.63-33.42.64-19.11-11.8-38.32-27.72-43.33-13.21-4.16-25.33-1.66-36.8,5.32-5.12,3.12-10.08,6.51-15,10-9.11,6.41-19,10.13-30.29,10-11.67-.17-23.33-.26-35-.35-99.15-.74-198.35,3.15-297.43-2.84-27.07-1.63-54.05-5-81.08-7.47-3.29-.3-4.14-1.89-3.81-5,1.55-14.74,2.79-29.51,4.52-44.23,2.51-21.34,5.68-42.6,7.9-64C803,149.79,805.83,137,812,124.93a172.18,172.18,0,0,0,11-25.65c6.35-20,5-39.48-6.36-57.65-9.41-15.08-23.26-17.44-37.16-6.29-16.86,13.53-23,31.22-19.91,52.38,2.81,19.08,2.38,38.19.78,57.35-3.6,43.08-12.32,85.31-20.68,127.62-.56,2.83-1.93,4.21-5.07,4.23-5.5,0-11,.58-16.48.8q-78.17,3.07-156.34,6.17c-11,.45-21.93,1.52-32.9,2.34-17.5,1.31-32.32-4.11-44.65-16.86a71.23,71.23,0,0,0-14.9-11.64c-17.79-10.48-39.08-2.24-45.9,17.21-4.12,11.74-3.08,23.25.92,34.72,5.71,16.37,17.09,25.56,34.43,27.74,13.42,1.69,26.09-1.74,38.94-4.49,16.57-3.54,33.08-7.6,49.82-10,13.31-1.93,26.91-2.05,40.39-2.45q53.47-1.56,106.95-2.57c10.14-.18,20.31.83,30.47,1.09,3.82.1,4.89,1.38,4,5.21-1,4.52-1.12,9.26-2.09,13.81-7.08,33.2-14,66.44-21.52,99.53-7.42,32.43-15.78,64.65-23.36,97-3.33,14.24-5.75,28.69-8.68,43.52-56.72,1.42-113.2,7.33-170.1,6.86a88.43,88.43,0,0,1,12.68-7.77c21.21-10.66,44-17.06,66.34-24.73,16.67-5.72,33.41-8.48,51-6.48,6.71.75,13.64.12,20.42-.43,19.9-1.64,32.35-25.16,26.2-43.13-4-11.67-14.52-17.29-29.12-14.84-8.19,1.38-16.52,2.72-24.35,5.38q-50.33,17.07-100.37,35c-44.36,15.87-86.35,36.68-126.67,61-9.62,5.8-13.2,13.48-12.51,24,.17,2.5.25,5,.61,7.47,1.31,8.94,5.41,13.62,14.44,14.6a121.85,121.85,0,0,0,24.37.5c25.53-2.4,50.94-6.21,76.5-8,51.18-3.68,102.43-6.41,153.65-9.51,2-.12,4.12,0,6.51,0-.9,4.16-1.66,7.55-2.36,10.95-8.9,43.55-17.93,87-33.69,128.82-6.06,16.07-10.29,32.63-9.76,50.17.35,11.86,5.6,20.34,16.07,24.89,19,8.23,38.35,8.74,55.9-2.91,8.94-5.93,16.14-14.73,23.44-22.85,8.23-9.15,15.21-19.48,26-26.07,2.43-1.5,5.15-2.54,8.42-4.12.41,2.68.71,4.27.9,5.87,1,8.39-1.17,16.21-4.56,23.76-3.55,7.89-7.66,15.56-10.7,23.64-6.69,17.78-2,31.8,13,40.48a43.73,43.73,0,0,0,22.45,5.88c18.18-.07,29.46-9.76,30.64-27.92.74-11.41,0-22.95-.57-34.41-.71-15.46-2.39-30.9-2.57-46.36-.12-9.65,1.43-19.62,9.56-26.45,10-8.35,20.21-16.34,30.55-24.2,2.77-2.11,6.33-3.2,10.46-5.22,0,8,0,14.73,0,21.47,0,7.81-.53,15.68.24,23.41.94,9.41,7.37,15.07,16.8,16.35a56.94,56.94,0,0,0,26.54-3c10.07-3.49,17.63-9.44,19.41-20.61a41,41,0,0,0,.56-11.93c-1.7-12.34-3.56-24.68-6-36.9-3.48-17.33.63-31.32,16.17-41a36.58,36.58,0,0,0,4.09-2.87c7.06-5.78,14.75-11,21-17.57,8.11-8.61,9.56-19.17,4.54-30.17-1.79-3.94-4-7.66-5.9-11.57-3.2-6.72-3.29-13.67.13-20.18,1.51-2.87,4.63-4.88,7-7.28,1.92,2.35,4.41,4.42,5.66,7.07,6.9,14.7,9.26,30.58,10.71,46.5,2.31,25.39,4.56,50.8,5.68,76.26,1,22.76,1.33,45.63.17,68.37-.59,11.58-5.18,22.94-7.82,34.44-5.77,25.15,10.19,45.83,35.45,45.8,15.91,0,28.56-6.41,36.15-20.72,7.21-13.61,4.84-26.78-3.64-39.11-3.49-5.07-7.64-9.72-10.83-15-3.08-5.06-6.46-10.37-7.71-16-3.2-14.44-5.69-29.06-7.74-43.72-3.81-27.2-7.21-54.47-10.57-81.74-1-8.19-1.3-16.47-2-25,6.84-.69,12.94-1.32,19-1.91,27.09-2.62,54.18-3.95,81.22.45,10,1.63,19.81,4.07,30,9.55-5.54,10.26-10.52,20.38-16.3,30-9.91,16.55-21.35,32.24-28.27,50.47-6.65,17.56-9.24,35.48-3.59,53.8,3.52,11.39,10,16.07,21.76,14.53,7.8-1,15.9-3,22.88-6.5,21.7-10.93,43.07-22.53,64.29-34.38,18.19-10.15,36-21.06,50.68-36.12,9.93-10.15,18.11-21.43,21.22-35.58,2.48-11.28.3-21.5-8.07-30-9.49-9.62-21.18-15.36-33.73-19.78a145.64,145.64,0,0,1-17.46-7.26c-4.81-2.43-8.14-6.55-10.35-12.92,8.52-1.09,16.34-2.71,24.21-3,30.59-1.08,59.35,6.63,87,19.11,2.6,1.17,3.54,2.72,2.85,5.45-1.36,5.32-2.16,10.82-4,16-8.57,23.79-17.62,47.42-26.11,71.24-7.7,21.65-13,43.78-10,67.06,3,23.52,20.09,34.91,42.89,28.54a85.55,85.55,0,0,0,31.48-16.88c10.78-8.88,20.84-18.64,31.57-27.6a80.2,80.2,0,0,1,16.85-11.29c6.5-3.06,7.45-2,7.35,5.12a42.47,42.47,0,0,1-.75,8.44c-2.31,10.73-5.07,21.36-7.22,32.12-3.56,17.91,5.91,31,23.24,31.38a65.72,65.72,0,0,0,21.93-3.48c15.47-5.22,20.37-13.94,17.84-30a162.52,162.52,0,0,0-4.76-20.39c-4.17-14.17-4.67-28,1.11-42,14.41-34.91,23.48-71.39,31-108.3a244.5,244.5,0,0,1,6.85-26,18.85,18.85,0,0,1,10.39-12c.21,1.85.48,3.27.53,4.69.67,21.83,2.24,43.67,1.79,65.47-1.62,77.64-4.07,155.27-5.87,232.92-.54,23.46-.86,47,.36,70.43,1,19.93.1,38.94-7.81,57.69-6,14.22-6.31,29.53-2.61,44.72,2.37,9.75,8.27,16,17.88,19a41.53,41.53,0,0,0,22.59.91c17.08-4.13,29-11.59,27.77-33.51-.6-11.09-2.79-22.76-7.23-32.86-9.22-21-12-42.32-10.12-64.82.9-10.61,1-21.32.86-32-.51-53.67-1.23-107.33-1.8-161-.88-81.84-.62-163.68,2.54-245.48.62-15.79,1.43-31.48,9.45-46,9.37-17,11.49-35.68,9.91-54.78-1.08-13.14-7.55-21.88-17.62-24-16.13-3.38-44.36,5.25-51.85,29-4,12.62-.91,24.07,4.25,35.3,3.75,8.15,4,16.09,1.6,24.7-6.52,23.4-12.34,47-18.83,70.39-4.61,16.66-9.46,33.28-15,49.64a80,80,0,0,1-15.71,26.68c-8.34-5.79-12.14-14-13.4-23-2.17-15.49-3.63-31.09-4.8-46.69-1.13-15-1.07-30,5.16-44.24,5.46-12.51,6.53-25.7,5.8-39.15-.79-14.37-8.49-24.18-22.1-28.11-15.9-4.59-28.63,1.89-32.08,17.88-2.15,9.95-1.78,20.43-2.58,30.67-.15,1.94.06,4.12-.77,5.74-7.74,15.1-15.78,30-23.52,45.14-6.61,12.89-12.79,26-22.5,37-1.9,2.15-3.47,2.68-6.39,2q-31.89-7-63.89-13.54c-10.36-2.09-20.84-3.61-31.63-5.45,6.85-11.72,13.44-22.67,19.71-33.8,10-17.7,23.14-31,42.93-38.26,22-8.06,34.67-34,29.48-57-2.19-9.71-8.19-15.81-18-18-16.81-3.72-36.26,3.61-45.64,18.07-7.79,12-14.52,24.68-21.9,36.95-18,30-36,60-54.28,89.83-6.67,10.91-13.84,21.52-21.07,32.07-4.94,7.21-12.14,7.67-20.07,6-10.74-2.22-21.58-3.94-32.37-6-6.09-1.15-12.16-2.49-18.84-3.88a27.86,27.86,0,0,1,2-2.74c13.17-13.07,27.91-23.67,45.77-29.47,6-1.95,12-4,17.89-6.3,20-7.87,31.52-23.53,38.07-43,4.48-13.33-2.1-24.25-16-26.78a48.74,48.74,0,0,0-19.72.69c-19.25,4.71-36.56,12.33-41.84,34.41-.37,1.56-2.43,2.94-4,4-7.49,4.94-15.3,9.44-22.6,14.64-12.61,9-24.52,19-37.47,27.45-13.62,8.88-28.38,15.39-45.4,14.46-4.58-.25-6.26-1.54-6.15-6.45.67-29,.87-58,1.52-87a104,104,0,0,1,10.23-43.39,164.14,164.14,0,0,0,12.1-32.62c4.4-18.41-6.57-32-25.44-32.86A68.65,68.65,0,0,0,976.25,353c-14.79,3.09-23,12.91-23.58,28.09a143.78,143.78,0,0,0,.53,19.47c1.6,16.9,2.46,33.62-6.12,49.24a26.77,26.77,0,0,0-1.84,5.18c-7,23.6-13.94,47.23-21,70.81q-8.21,27.26-16.85,54.38c-.48,1.5-2.35,3.69-3.51,3.66a46.21,46.21,0,0,1-12.27-1.92c-1.89-.59-4.31-2.9-4.57-4.72-1.67-11.51-4-23.12-3.88-34.68.24-30,1.51-59.95,2.58-89.92.27-7.32,1.19-14.59,5.69-20.92,8.94-12.57,10.46-26.88,8.37-41.55a32.47,32.47,0,0,0-6.19-14.42c-7.28-9.58-17.73-9.48-28.24-6.92-10.89,2.65-19.45,8.56-21.81,20.16-1.21,5.92-1.1,12.26-.65,18.34.86,11.62.13,22.75-4.21,33.81C821.58,484.73,812.75,530.52,803.25,577.09Zm93.8-402.85c-3.49.23-7,.26-10.45.74-14.43,2-23.46,10.1-25.85,24.44-2.81,16.84,2,31.94,14.32,43.68,15.72,14.94,37.85,10.51,47.13-9.16,6.64-14.08,7-28.86.67-43C916,175.61,908.75,173.34,897.05,174.24Zm85.3,23.7c-5.84,1.66-12,2.58-17.48,5.11-13.06,6.06-18.92,20.83-14.65,35,4.32,14.35,16.09,22.76,29.94,21,13.68-1.73,23.83-8.86,30.26-21a25.12,25.12,0,0,0,2.46-17.9C1009.9,207.4,998.11,199.15,982.35,197.94Z"/><path class="cls-1" d="M803.25,577.09c9.5-46.57,18.33-92.36,35.41-136,4.34-11.06,5.07-22.19,4.21-33.81-.45-6.08-.56-12.42.65-18.34,2.36-11.6,10.92-17.51,21.81-20.16,10.51-2.56,21-2.66,28.24,6.92a32.47,32.47,0,0,1,6.19,14.42c2.09,14.67.57,29-8.37,41.55-4.5,6.33-5.42,13.6-5.69,20.92-1.07,30-2.34,59.94-2.58,89.92-.09,11.56,2.21,23.17,3.88,34.68.26,1.82,2.68,4.13,4.57,4.72a46.21,46.21,0,0,0,12.27,1.92c1.16,0,3-2.16,3.51-3.66q8.61-27.13,16.85-54.38c7.1-23.58,14-47.21,21-70.81a26.77,26.77,0,0,1,1.84-5.18c8.58-15.62,7.72-32.34,6.12-49.24a143.78,143.78,0,0,1-.53-19.47c.62-15.18,8.79-25,23.58-28.09a68.65,68.65,0,0,1,16.85-1.41c18.87.87,29.84,14.45,25.44,32.86a164.14,164.14,0,0,1-12.1,32.62,104,104,0,0,0-10.23,43.39c-.65,29-.85,58-1.52,87-.11,4.91,1.57,6.2,6.15,6.45,17,.93,31.78-5.58,45.4-14.46,13-8.44,24.86-18.46,37.47-27.45,7.3-5.2,15.11-9.7,22.6-14.64,1.56-1,3.62-2.4,4-4,5.28-22.08,22.59-29.7,41.84-34.41a48.74,48.74,0,0,1,19.72-.69c13.89,2.53,20.47,13.45,16,26.78-6.55,19.51-18.11,35.17-38.07,43-5.88,2.31-11.88,4.35-17.89,6.3-17.86,5.8-32.6,16.4-45.77,29.47a27.86,27.86,0,0,0-2,2.74c6.68,1.39,12.75,2.73,18.84,3.88,10.79,2,21.63,3.76,32.37,6,7.93,1.64,15.13,1.18,20.07-6,7.23-10.55,14.4-21.16,21.07-32.07,18.25-29.85,36.26-59.84,54.28-89.83,7.38-12.27,14.11-24.95,21.9-36.95,9.38-14.46,28.83-21.79,45.64-18.07,9.77,2.17,15.77,8.27,18,18,5.19,23-7.43,48.94-29.48,57-19.79,7.22-33,20.56-42.93,38.26-6.27,11.13-12.86,22.08-19.71,33.8,10.79,1.84,21.27,3.36,31.63,5.45q32,6.48,63.89,13.54c2.92.64,4.49.11,6.39-2,9.71-11,15.89-24.14,22.5-37,7.74-15.1,15.78-30,23.52-45.14.83-1.62.62-3.8.77-5.74.8-10.24.43-20.72,2.58-30.67,3.45-16,16.18-22.47,32.08-17.88,13.61,3.93,21.31,13.74,22.1,28.11.73,13.45-.34,26.64-5.8,39.15-6.23,14.24-6.29,29.23-5.16,44.24,1.17,15.6,2.63,31.2,4.8,46.69,1.26,9,5.06,17.16,13.4,23a80,80,0,0,0,15.71-26.68c5.54-16.36,10.39-33,15-49.64,6.49-23.4,12.31-47,18.83-70.39,2.4-8.61,2.15-16.55-1.6-24.7-5.16-11.23-8.22-22.68-4.25-35.3,7.49-23.75,35.72-32.38,51.85-29,10.07,2.12,16.54,10.86,17.62,24,1.58,19.1-.54,37.8-9.91,54.78-8,14.53-8.83,30.22-9.45,46-3.16,81.8-3.42,163.64-2.54,245.48.57,53.67,1.29,107.33,1.8,161,.1,10.66,0,21.37-.86,32-1.92,22.5.9,43.87,10.12,64.82,4.44,10.1,6.63,21.77,7.23,32.86,1.18,21.92-10.69,29.38-27.77,33.51A41.53,41.53,0,0,1,1496,1060c-9.61-3-15.51-9.26-17.88-19-3.7-15.19-3.39-30.5,2.61-44.72,7.91-18.75,8.86-37.76,7.81-57.69-1.22-23.42-.9-47-.36-70.43,1.8-77.65,4.25-155.28,5.87-232.92.45-21.8-1.12-43.64-1.79-65.47,0-1.42-.32-2.84-.53-4.69a18.85,18.85,0,0,0-10.39,12,244.5,244.5,0,0,0-6.85,26c-7.56,36.91-16.63,73.39-31,108.3-5.78,14-5.28,27.81-1.11,42a162.52,162.52,0,0,1,4.76,20.39c2.53,16-2.37,24.77-17.84,30a65.72,65.72,0,0,1-21.93,3.48c-17.33-.33-26.8-13.47-23.24-31.38,2.15-10.76,4.91-21.39,7.22-32.12a42.47,42.47,0,0,0,.75-8.44c.1-7.09-.85-8.18-7.35-5.12a80.2,80.2,0,0,0-16.85,11.29c-10.73,9-20.79,18.72-31.57,27.6a85.55,85.55,0,0,1-31.48,16.88c-22.8,6.37-39.93-5-42.89-28.54-2.92-23.28,2.33-45.41,10-67.06,8.49-23.82,17.54-47.45,26.11-71.24,1.85-5.14,2.65-10.64,4-16,.69-2.73-.25-4.28-2.85-5.45-27.67-12.48-56.43-20.19-87-19.11-7.87.28-15.69,1.9-24.21,3,2.21,6.37,5.54,10.49,10.35,12.92a145.64,145.64,0,0,0,17.46,7.26c12.55,4.42,24.24,10.16,33.73,19.78,8.37,8.49,10.55,18.71,8.07,30-3.11,14.15-11.29,25.43-21.22,35.58-14.73,15.06-32.49,26-50.68,36.12-21.22,11.85-42.59,23.45-64.29,34.38-7,3.52-15.08,5.48-22.88,6.5-11.75,1.54-18.24-3.14-21.76-14.53-5.65-18.32-3.06-36.24,3.59-53.8,6.92-18.23,18.36-33.92,28.27-50.47,5.78-9.64,10.76-19.76,16.3-30-10.23-5.48-20-7.92-30-9.55-27-4.4-54.13-3.07-81.22-.45-6.1.59-12.2,1.22-19,1.91.65,8.53.94,16.81,2,25,3.36,27.27,6.76,54.54,10.57,81.74,2.05,14.66,4.54,29.28,7.74,43.72,1.25,5.64,4.63,11,7.71,16,3.19,5.24,7.34,9.89,10.83,15,8.48,12.33,10.85,25.5,3.64,39.11-7.59,14.31-20.24,20.7-36.15,20.72-25.26,0-41.22-20.65-35.45-45.8,2.64-11.5,7.23-22.86,7.82-34.44,1.16-22.74.83-45.61-.17-68.37-1.12-25.46-3.37-50.87-5.68-76.26-1.45-15.92-3.81-31.8-10.71-46.5-1.25-2.65-3.74-4.72-5.66-7.07-2.4,2.4-5.52,4.41-7,7.28-3.42,6.51-3.33,13.46-.13,20.18,1.86,3.91,4.11,7.63,5.9,11.57,5,11,3.57,21.56-4.54,30.17-6.21,6.59-13.9,11.79-21,17.57a36.58,36.58,0,0,1-4.09,2.87c-15.54,9.68-19.65,23.67-16.17,41,2.45,12.22,4.31,24.56,6,36.9a41,41,0,0,1-.56,11.93c-1.78,11.17-9.34,17.12-19.41,20.61a56.94,56.94,0,0,1-26.54,3c-9.43-1.28-15.86-6.94-16.8-16.35-.77-7.73-.22-15.6-.24-23.41,0-6.74,0-13.47,0-21.47-4.13,2-7.69,3.11-10.46,5.22-10.34,7.86-20.6,15.85-30.55,24.2-8.13,6.83-9.68,16.8-9.56,26.45.18,15.46,1.86,30.9,2.57,46.36.53,11.46,1.31,23,.57,34.41-1.18,18.16-12.46,27.85-30.64,27.92A43.73,43.73,0,0,1,746,870.58c-15-8.68-19.69-22.7-13-40.48,3-8.08,7.15-15.75,10.7-23.64,3.39-7.55,5.51-15.37,4.56-23.76-.19-1.6-.49-3.19-.9-5.87-3.27,1.58-6,2.62-8.42,4.12-10.75,6.59-17.73,16.92-26,26.07-7.3,8.12-14.5,16.92-23.44,22.85C672,841.52,652.6,841,633.65,832.78c-10.47-4.55-15.72-13-16.07-24.89-.53-17.54,3.7-34.1,9.76-50.17C643.1,715.94,652.13,672.45,661,628.9c.7-3.4,1.46-6.79,2.36-10.95-2.39,0-4.46-.11-6.51,0-51.22,3.1-102.47,5.83-153.65,9.51-25.56,1.84-51,5.65-76.5,8a121.85,121.85,0,0,1-24.37-.5c-9-1-13.13-5.66-14.44-14.6-.36-2.46-.44-5-.61-7.47-.69-10.53,2.89-18.21,12.51-24,40.32-24.35,82.31-45.16,126.67-61q50-17.89,100.37-35c7.83-2.66,16.16-4,24.35-5.38,14.6-2.45,25.12,3.17,29.12,14.84,6.15,18-6.3,41.49-26.2,43.13-6.78.55-13.71,1.18-20.42.43-17.62-2-34.36.76-51,6.48-22.34,7.67-45.13,14.07-66.34,24.73a88.43,88.43,0,0,0-12.68,7.77c56.9.47,113.38-5.44,170.1-6.86,2.93-14.83,5.35-29.28,8.68-43.52,7.58-32.4,15.94-64.62,23.36-97,7.57-33.09,14.44-66.33,21.52-99.53,1-4.55,1-9.29,2.09-13.81.88-3.83-.19-5.11-4-5.21-10.16-.26-20.33-1.27-30.47-1.09q-53.48,1-106.95,2.57c-13.48.4-27.08.52-40.39,2.45-16.74,2.44-33.25,6.5-49.82,10-12.85,2.75-25.52,6.18-38.94,4.49-17.34-2.18-28.72-11.37-34.43-27.74-4-11.47-5-23-.92-34.72,6.82-19.45,28.11-27.69,45.9-17.21a71.23,71.23,0,0,1,14.9,11.64c12.33,12.75,27.15,18.17,44.65,16.86,11-.82,21.92-1.89,32.9-2.34q78.17-3.22,156.34-6.17c5.5-.22,11-.77,16.48-.8,3.14,0,4.51-1.4,5.07-4.23,8.36-42.31,17.08-84.54,20.68-127.62,1.6-19.16,2-38.27-.78-57.35-3.11-21.16,3-38.85,19.91-52.38,13.9-11.15,27.75-8.79,37.16,6.29C828,59.8,829.4,79.29,823.05,99.28a172.18,172.18,0,0,1-11,25.65c-6.17,12.1-9,24.86-10.36,38.26-2.22,21.37-5.39,42.63-7.9,64-1.73,14.72-3,29.49-4.52,44.23-.33,3.07.52,4.66,3.81,5,27,2.49,54,5.84,81.08,7.47,99.08,6,198.28,2.1,297.43,2.84,11.66.09,23.32.18,35,.35,11.26.15,21.18-3.57,30.29-10,4.9-3.45,9.86-6.84,15-10,11.47-7,23.59-9.48,36.8-5.32,15.92,5,28.36,24.22,27.72,43.33-.53,15.79-12.66,29.22-29.63,33.42-8.14,2-15.84,1.06-23.5-1.74a59.65,59.65,0,0,1-7.83-3.23c-12.45-6.68-25.85-8-39.7-8-28.49,0-57-.13-85.47-.89-53.14-1.42-106.27-3.34-159.4-5.05q-89.94-2.88-179.88-5.85c-4.86-.17-6,1.41-6.59,6-7.43,55.18-8.31,110.61-6.69,166.14.82,28.15,2.13,56.28,3.29,84.42.26,6.31.78,6.74,7,6.82C793.08,577.15,798.21,577.09,803.25,577.09ZM673.26,767a68,68,0,0,0,26.82-3.63c15.52-5.1,27.88-15.38,40.74-24.8,1.13-.83,1.58-3.18,1.6-4.82q.62-54.94,1-109.89c0-2.25,0-4.5,0-7.54-13.24.55-25.69,1-38.11,1.77-1.24.08-3,2.4-3.36,4-2.63,11-5.12,22-7.35,33.11q-8.05,40.1-15.8,80.24C676.86,745.61,675.2,755.92,673.26,767Zm633.92-37.63a31.21,31.21,0,0,0,4,.18c15.6-1.8,30-7,41.61-17.64,12.85-11.81,24.92-24.48,37.2-36.9a8.18,8.18,0,0,0,1.94-4.9c.93-14.12,1.61-28.26,2.52-42.38.19-3-.71-4.51-3.61-5.5-14.51-5-29.18-9.08-44.51-10.73-3.81-.4-5.75.75-7.52,3.88-14.37,25.37-25.86,51.84-29.59,81C1307.88,707.17,1307.85,718.14,1307.18,729.33ZM1122.4,700.45c35.42-7.45,65.69-21.68,89.53-48.92-15.25-10.56-30.51-19.85-47.34-26.45-3.54-1.39-5.69-.84-8.14,2C1138.33,647.88,1129.6,673,1122.4,700.45Zm-310.61-3.2c11.35-7.09,21.93-13.94,32.8-20.31,3.2-1.88,4.46-3.87,4.36-7.45-.5-17-.82-34-1.23-51a11.11,11.11,0,0,0-.87-2.26c-5.66,0-11.65.37-17.56-.14-3.76-.33-5,.78-5.5,4.29C819.9,645.89,815.86,671.31,811.79,697.25Zm-68.72-120.5a7.85,7.85,0,0,0,.33-1.75q-2.45-36.82-5-73.64c-.17-2.43-.37-5-3.91-5.38s-3.73,2.45-4.19,4.42q-6.37,27.14-12.4,54.36c-1.6,7.21-2.77,14.51-4.18,22Zm613.36-6.18,35,11.87c-.88-19.65-1.53-37.62-6.09-55.54Zm-523.1,7.54c4.47,0,8.44.21,12.37-.13,1.08-.1,2.88-1.87,2.87-2.86-.06-7.28-.22-14.58-1-21.81-.21-2-2.77-5.46-3.82-5.31-2.23.33-4.49,2.32-6.14,4.16-1.1,1.22-1.41,3.34-1.66,5.12C835,564,834.26,570.72,833.33,578.11Z"/><path class="cls-1" d="M897.05,174.24c11.7-.9,18.94,1.37,25.82,16.66,6.37,14.18,6,29-.67,43-9.28,19.67-31.41,24.1-47.13,9.16-12.37-11.74-17.13-26.84-14.32-43.68,2.39-14.34,11.42-22.4,25.85-24.44C890.05,174.5,893.56,174.47,897.05,174.24Z"/><path class="cls-1" d="M982.35,197.94c15.76,1.21,27.55,9.46,30.53,22.19a25.12,25.12,0,0,1-2.46,17.9c-6.43,12.19-16.58,19.32-30.26,21-13.85,1.74-25.62-6.67-29.94-21-4.27-14.18,1.59-28.95,14.65-35C970.32,200.52,976.51,199.6,982.35,197.94Z"/><path d="M673.26,767c1.94-11,3.6-21.35,5.58-31.6q7.77-40.14,15.8-80.24C696.87,644,699.36,633,702,622c.37-1.56,2.12-3.88,3.36-4,12.42-.8,24.87-1.22,38.11-1.77,0,3,0,5.29,0,7.54q-.48,54.95-1,109.89c0,1.64-.47,4-1.6,4.82-12.86,9.42-25.22,19.7-40.74,24.8A68,68,0,0,1,673.26,767Z"/><path d="M1307.18,729.33c.67-11.19.7-22.16,2.08-33,3.73-29.19,15.22-55.66,29.59-81,1.77-3.13,3.71-4.28,7.52-3.88,15.33,1.65,30,5.74,44.51,10.73,2.9,1,3.8,2.54,3.61,5.5-.91,14.12-1.59,28.26-2.52,42.38A8.18,8.18,0,0,1,1390,675c-12.28,12.42-24.35,25.09-37.2,36.9-11.61,10.66-26,15.84-41.61,17.64A31.21,31.21,0,0,1,1307.18,729.33Z"/><path d="M1122.4,700.45c7.2-27.44,15.93-52.57,34-73.39,2.45-2.82,4.6-3.37,8.14-2,16.83,6.6,32.09,15.89,47.34,26.45C1188.09,678.77,1157.82,693,1122.4,700.45Z"/><path d="M811.79,697.25c4.07-25.94,8.11-51.36,12-76.82.53-3.51,1.74-4.62,5.5-4.29,5.91.51,11.9.14,17.56.14a11.11,11.11,0,0,1,.87,2.26c.41,17,.73,34,1.23,51,.1,3.58-1.16,5.57-4.36,7.45C833.72,683.31,823.14,690.16,811.79,697.25Z"/><path d="M743.07,576.75H713.74c1.41-7.48,2.58-14.78,4.18-22q6-27.22,12.4-54.36c.46-2,.58-4.81,4.19-4.42s3.74,2.95,3.91,5.38q2.57,36.81,5,73.64A7.85,7.85,0,0,1,743.07,576.75Z"/><path d="M1356.43,570.57l29-43.67c4.56,17.92,5.21,35.89,6.09,55.54Z"/><path d="M833.33,578.11c.93-7.39,1.7-14.12,2.64-20.83.25-1.78.56-3.9,1.66-5.12,1.65-1.84,3.91-3.83,6.14-4.16,1.05-.15,3.61,3.31,3.82,5.31.76,7.23.92,14.53,1,21.81,0,1-1.79,2.76-2.87,2.86C841.77,578.32,837.8,578.11,833.33,578.11Z"/></svg>