<?xml version="1.0" encoding="utf-8"?>
<!-- Generator: Adobe Illustrator 25.4.0, SVG Export Plug-In . SVG Version: 6.00 Build 0)  -->
<svg version="1.1" id="Layer_1" xmlns="http://www.w3.org/2000/svg" xmlns:xlink="http://www.w3.org/1999/xlink" x="0px" y="0px"
	 viewBox="0 0 300 300" style="enable-background:new 0 0 300 300;" xml:space="preserve">
<style type="text/css">
	.st0{fill:#FFFFFF;}
	.st1{fill:#1D1D1B;}
</style>
<g>
	<path class="st0" d="M150,300C67.3,300,0,232.7,0,150C0,67.3,67.3,0,150,0c82.7,0,150,67.3,150,150C300,232.7,232.7,300,150,300z
		 M150,21.7C79.3,21.7,21.7,79.3,21.7,150c0,70.7,57.6,128.3,128.3,128.3c70.7,0,128.3-57.6,128.3-128.3
		C278.3,79.3,220.7,21.7,150,21.7z"/>
	<path class="st1" d="M150,294.1C70.6,294.1,5.9,229.4,5.9,150S70.6,5.9,150,5.9S294.1,70.6,294.1,150S229.4,294.1,150,294.1z
		 M150,15.8C76,15.8,15.8,76,15.8,150c0,74,60.2,134.2,134.2,134.2c74,0,134.2-60.2,134.2-134.2C284.2,76,224,15.8,150,15.8z"/>
</g>
<path class="st0" d="M191.1,249.9c-15.2,0-28.5-2-39.5-6c-11,4-24.3,6-39.5,6c-21.3,0-38.9-5.7-52.3-16.8C46,221.6,39,207,39,189.7
	c0-13.8,3.9-25,11.7-33.4c7.4-8,16.4-13.9,26.7-17.7c9.7-3.5,22.9-7.1,39.2-10.7c0.6-0.1,1.3-0.3,1.9-0.4
	c-2.8-6.2-4.2-13.1-4.2-20.8c0-8.3,1.7-15.9,5.1-22.8c-0.5,0-1.1,0-1.6,0c-24.6,0-37.1,8.8-39.1,27.6l-0.6,5.3H43.1l0.3-6.2
	c0.8-19.1,8.3-34.1,22.3-44.7c13.5-10.2,31.4-15.4,53-15.4c12.3,0,23.4,1.8,33,5.5c9.6-3.6,20.6-5.5,33-5.5c21.7,0,39.5,5.2,53,15.4
	c14,10.6,21.4,25.6,22.3,44.7l0.3,6.2h-34.9l-0.6-5.3c-2.1-18.8-14.5-27.6-39.1-27.6c-0.5,0-1.1,0-1.6,0c3.4,6.9,5.1,14.5,5.1,22.8
	c0,7.6-1.4,14.6-4.2,20.8c0.6,0.1,1.2,0.3,1.9,0.4c16.3,3.6,29.5,7.2,39.2,10.7c10.3,3.8,19.3,9.7,26.7,17.7
	c7.8,8.4,11.7,19.6,11.7,33.4c0,17.4-7,32-20.8,43.4C230,244.2,212.4,249.9,191.1,249.9z M185.7,216.3c1.4,0.1,2.9,0.1,4.4,0.1
	c12.2,0,22-2.4,29.2-7.3c6.6-4.5,9.7-10,9.7-17.6c0-7.8-3.1-13-9.6-16.5c-8-4.3-22.2-8.6-42.3-12.9c-9.6-2.1-18.2-4.5-25.5-7.3
	c-7.3,2.8-15.8,5.3-25.5,7.3c-20.1,4.3-34.3,8.6-42.3,12.9c-6.6,3.5-9.6,8.8-9.6,16.5c0,7.6,3.1,13.1,9.7,17.6
	c7.2,4.8,17,7.3,29.2,7.3c1.5,0,2.9,0,4.4-0.1c-5.9-9.7-9.1-20.9-9.6-33.5l-0.2-6.1h34.7l0.5,5.4c0.8,8.9,3.7,15.9,8.8,21.1
	c5.1-5.2,8-12.2,8.8-21.1l0.5-5.4h34.7l-0.2,6.1C194.8,195.4,191.6,206.6,185.7,216.3z M151.6,96.9c-1.5,2.6-2.2,5.4-2.2,8.7
	c0,3.4,0.7,6.1,2.2,8.3c1.5-2.2,2.2-4.9,2.2-8.3C153.8,102.3,153.1,99.4,151.6,96.9z"/>
<path d="M248.1,160.3c-6.8-7.3-14.9-12.7-24.4-16.1c-9.5-3.5-22.3-7-38.4-10.5c-3.5-0.8-6.7-1.5-9.7-2.3c4.9-6.8,7.4-15,7.4-24.7
	c0-10.7-3.1-20-9.4-27.9c3.7-0.5,7.6-0.8,11.9-0.8c27.6,0,42.6,11,45,32.9h23.4c-0.7-17.3-7.4-30.7-19.9-40.2
	c-12.5-9.5-29-14.2-49.5-14.2c-12.6,0-23.6,2-33,5.9c-9.4-3.9-20.3-5.9-33-5.9c-20.4,0-36.9,4.7-49.5,14.2
	C56.6,80.2,50,93.6,49.3,110.9h23.4C75,89,90,78,117.7,78c4.3,0,8.2,0.3,11.9,0.8c-6.3,7.9-9.4,17.2-9.4,27.9
	c0,9.6,2.5,17.9,7.4,24.7c-3,0.8-6.2,1.5-9.7,2.3c-16.1,3.5-28.9,7-38.4,10.5c-9.5,3.5-17.6,8.8-24.4,16.1
	c-6.8,7.3-10.1,17.1-10.1,29.4c0,15.6,6.2,28.5,18.6,38.8C76,238.8,92.1,244,112.1,244c15.6,0,28.7-2.1,39.5-6.4
	c10.8,4.3,23.9,6.4,39.5,6.4c20,0,36.1-5.2,48.5-15.5c12.4-10.3,18.6-23.3,18.6-38.8C258.3,177.4,254.9,167.6,248.1,160.3z
	 M151.6,87.8c5.4,4.7,8.1,10.6,8.1,17.8c0,7.3-2.7,12.8-8.1,16.6c-5.4-3.8-8.1-9.3-8.1-16.6C143.5,98.4,146.2,92.5,151.6,87.8z
	 M222.6,214c-8.2,5.5-19,8.3-32.5,8.3c-5.3,0-10.3-0.5-15.1-1.4c9-10.5,13.8-23.3,14.3-38.3h-23.1c-1.1,12.5-6,22-14.7,28.4
	c-8.6-6.5-13.5-15.9-14.7-28.4h-23.1c0.6,15.1,5.3,27.8,14.3,38.3c-4.7,0.9-9.7,1.4-15.1,1.4c-13.4,0-24.3-2.8-32.5-8.3
	c-8.2-5.5-12.3-13-12.3-22.5c0-10,4.2-17.2,12.7-21.8c8.5-4.5,23.1-9,43.8-13.4c10.4-2.2,19.3-4.8,26.7-7.9
	c7.4,3.1,16.3,5.7,26.7,7.9c20.7,4.4,35.4,8.9,43.8,13.4c8.5,4.5,12.7,11.8,12.7,21.8C234.9,201,230.8,208.5,222.6,214z"/>
</svg>
